<svg id="Layer_1" data-name="Layer 1" xmlns="http://www.w3.org/2000/svg" viewBox="0 0 400 400"><title>vent</title><path d="M373,0,269.49,37.94l20.87,9.28q-6,7.43-11.7,15c-8.35,11.14-16.33,22.59-23.81,34.41a390.09,390.09,0,0,0-20.65,36.66c-3,6.34-6,12.77-8.62,19.31l-1.93,4.9c-.62,1.64-1.2,3.29-1.8,4.93s-1.21,3.28-1.76,4.94l-1.65,5a367.13,367.13,0,0,0-10.65,40.1c-1.44,6.72-2.61,13.48-3.72,20.23s-2,13.51-2.72,20.29c-.53,4.64-1,9.29-1.35,13.93-.38-4.64-.82-9.29-1.35-13.93-.72-6.78-1.69-13.53-2.72-20.29s-2.28-13.51-3.72-20.23a367.13,367.13,0,0,0-10.65-40.1l-1.65-5c-.55-1.66-1.17-3.29-1.76-4.94s-1.18-3.29-1.8-4.93l-1.93-4.9c-2.57-6.54-5.57-13-8.62-19.31a390.09,390.09,0,0,0-20.65-36.66c-7.48-11.82-15.46-23.27-23.81-34.41q-5.73-7.6-11.69-15l20.86-9.28L27,0,72.06,100.62l7.22-19.85c3.24,3.1,6.45,6.22,9.61,9.4C98,99.33,106.73,108.79,115,118.6a353,353,0,0,1,23.25,30.52c3.54,5.3,6.92,10.64,10.14,16.16l2.43,4.15c.8,1.39,1.55,2.81,2.33,4.21s1.57,2.81,2.3,4.24l2.22,4.3a344.3,344.3,0,0,1,15.67,35.71c2.35,6.12,4.44,12.34,6.5,18.6s3.92,12.59,5.62,19q5.22,19.14,8.78,38.84A379.29,379.29,0,0,1,199.49,334h0v0h1v0h0a379.29,379.29,0,0,1,5.23-39.69q3.58-19.67,8.78-38.84c1.7-6.38,3.64-12.7,5.62-19s4.15-12.48,6.5-18.6a344.3,344.3,0,0,1,15.67-35.71l2.22-4.3c.73-1.43,1.54-2.83,2.3-4.24s1.53-2.82,2.33-4.21l2.43-4.15c3.22-5.52,6.6-10.86,10.14-16.16A353,353,0,0,1,285,118.6c8.29-9.81,17-19.27,26.13-28.43,3.16-3.18,6.37-6.3,9.61-9.4l7.22,19.85Z" style="fill:#fff"/><path d="M57.85,340H75.39l14.76,43.27L105,340h17.54L99.86,400H80.43Zm86,0h44v13H159.32v10H187.2v13.13H159.32V387h28.51v13h-44Zm86.37,23.75V400H214.75V340h15.92L255,374.54V340h15.56v60H255.59Zm79.72-10.26H293.12V340h49v13.49H325.42V400H309.94Z" style="fill:#fff"/></svg>